<?xml version="1.0" encoding="utf-8"?>
<!-- Generator: Adobe Illustrator 22.0.1, SVG Export Plug-In . SVG Version: 6.00 Build 0)  -->
<svg version="1.1" id="Layer_1" xmlns="http://www.w3.org/2000/svg" xmlns:xlink="http://www.w3.org/1999/xlink" x="0px" y="0px"
	 viewBox="0 0 1000 1000" style="enable-background:new 0 0 1000 1000;" xml:space="preserve">
<style type="text/css">
	.st0{fill:#253A7E;}
</style>
<g>
	<path class="st0" d="M508.4,485c0,0,86.9,21.4,155.8-32.7c68.9-54.1,66.7-135.7,66.7-135.7s-77.9-24.3-148.7,27.3
		S508.4,485,508.4,485z"/>
	<path class="st0" d="M508.1,525.8c0,0,14.2,61.2,69.9,87.2c55.7,26,106.1-1.3,106.1-1.3s-9.5-56.5-64.3-84.4
		C565.1,499.3,508.1,525.8,508.1,525.8z"/>
	<path class="st0" d="M639.1,499.3c0,0,30.1,33.4,73.9,30.4c43.9-3,66-37.5,66-37.5s-25.5-32.1-69.5-30.6
		C665.6,463,639.1,499.3,639.1,499.3z"/>
	<path class="st0" d="M595.2,288.3c0,0-46.3-76.6-133.3-87c-87-10.4-143.1,48.8-143.1,48.8s38,72.2,124.5,85.8
		C529.7,349.5,595.2,288.3,595.2,288.3z"/>
	<path class="st0" d="M624.2,259.7c0,0,33.3-53.3,12.2-111.1c-21-57.8-75.9-74.1-75.9-74.1s-33.2,46.7-14.3,105.1
		S624.2,259.7,624.2,259.7z"/>
	<path class="st0" d="M512.8,185.8c0,0,2.4-44.9-30.8-73.8c-33.2-28.9-73.2-20.1-73.2-20.1s-4.6,40.7,27.5,70.8
		S512.8,185.8,512.8,185.8z"/>
	<path class="st0" d="M434.8,393.6c0,0-76.6,46.3-87,133.3c-10.4,87,48.8,143.1,48.8,143.1s72.2-38,85.8-124.5
		C495.9,459,434.8,393.6,434.8,393.6z"/>
	<path class="st0" d="M406.2,364.6c0,0-53.3-33.3-111.1-12.2c-57.8,21-74.1,75.9-74.1,75.9s46.7,33.2,105.1,14.3
		S406.2,364.6,406.2,364.6z"/>
	<path class="st0" d="M332.3,475.9c0,0-44.9-2.4-73.8,30.8c-28.9,33.2-20.1,73.2-20.1,73.2s40.7,4.6,70.8-27.5
		C339.2,520.3,332.3,475.9,332.3,475.9z"/>
</g>
<g>
	<path class="st0" d="M246.9,746.1h38.9l107,179.4h-38.1L246.9,746.1z M246.9,925.5V758.1l38.6,64.8l1.8,102.6H246.9z M352.6,746.1
		h40.1v166.2l-38.6-65L352.6,746.1z"/>
	<path class="st0" d="M431.9,925.5V746.1h40.7v179.4H431.9z M478.9,851.1v-44.2l56.7-60.7h52.3l-82.1,81.3l86.1,98.1h-50.1
		L478.9,851.1z"/>
	<path class="st0" d="M607.2,746.1h38.9l107,179.4h-38.1L607.2,746.1z M607.2,925.5V758.1l38.6,64.8l1.8,102.6H607.2z M712.9,746.1
		h40.1v166.2l-38.6-65L712.9,746.1z"/>
</g>
</svg>
