<?xml version="1.0" standalone="no"?>
<!DOCTYPE svg PUBLIC "-//W3C//DTD SVG 20010904//EN"
 "http://www.w3.org/TR/2001/REC-SVG-20010904/DTD/svg10.dtd">
<svg version="1.0" xmlns="http://www.w3.org/2000/svg"
 width="700.000000pt" height="700.000000pt" viewBox="0 0 700.000000 700.000000"
 preserveAspectRatio="xMidYMid meet">
<metadata>
Created by potrace 1.11, written by Peter Selinger 2001-2013
</metadata>
<g transform="translate(0.000000,700.000000) scale(0.100000,-0.100000)"
fill="#000000" stroke="none">
<path d="M3662 6463 c-4 -1 -56 -3 -117 -6 -118 -4 -145 -13 -166 -56 -16 -32
-21 -617 -7 -670 22 -80 28 -81 405 -78 359 2 360 2 385 62 10 22 13 109 13
335 -1 429 15 407 -310 412 -107 2 -198 2 -203 1z"/>
<path d="M2423 6171 c-49 -17 -310 -161 -466 -259 -95 -58 -122 -93 -111 -139
10 -44 71 -159 144 -273 36 -58 90 -144 118 -191 28 -47 64 -98 79 -113 44
-44 86 -33 250 60 76 43 147 84 158 90 98 52 225 133 248 157 43 46 37 83 -34
212 -33 61 -69 126 -81 145 -11 19 -32 55 -46 80 -73 133 -153 236 -187 242
-13 3 -46 -2 -72 -11z"/>
<path d="M5032 6173 c-24 -12 -122 -138 -122 -157 0 -2 -34 -62 -76 -132 -97
-165 -153 -272 -159 -307 -7 -38 18 -81 68 -115 56 -38 407 -239 477 -273 89
-43 119 -33 183 58 20 29 37 55 37 57 0 4 107 190 130 226 51 81 122 219 124
240 4 69 -24 95 -229 212 -377 215 -380 217 -433 191z"/>
<path d="M1139 5117 c-19 -19 -88 -129 -154 -244 -151 -262 -175 -311 -175
-349 0 -41 46 -90 127 -134 21 -11 52 -29 68 -39 17 -10 48 -28 70 -41 22 -12
77 -44 123 -71 208 -123 252 -133 307 -73 29 31 115 175 268 447 56 100 70
163 42 190 -39 40 -144 106 -355 225 -25 14 -80 45 -123 70 -47 26 -96 47
-121 49 -39 5 -46 2 -77 -30z"/>
<path d="M6238 5117 c-135 -71 -469 -269 -497 -297 -47 -43 -43 -84 22 -200
241 -436 278 -490 340 -490 35 0 167 62 265 124 20 13 82 49 137 81 188 109
225 141 225 195 0 28 -34 96 -162 318 -155 271 -178 301 -235 302 -17 0 -60
-15 -95 -33z"/>
<path d="M3899 4782 c-12 -26 -50 -117 -86 -202 -36 -85 -71 -168 -79 -185 -7
-16 -77 -181 -154 -365 -77 -184 -147 -348 -154 -365 -57 -125 -526 -1244
-526 -1253 0 -7 -4 -12 -10 -12 -5 0 -10 -5 -10 -11 0 -10 -96 -247 -131 -324
-63 -139 -136 -321 -131 -327 4 -3 58 -29 120 -56 l113 -51 9 25 c5 13 18 43
29 67 21 47 263 617 456 1072 69 165 132 314 140 330 7 17 52 122 100 235 48
113 89 209 92 214 3 5 14 -6 23 -25 9 -19 38 -74 65 -124 26 -49 72 -137 103
-195 30 -58 74 -141 97 -185 23 -44 70 -134 105 -200 34 -66 82 -156 105 -200
23 -44 68 -129 100 -190 32 -60 74 -141 95 -180 65 -122 125 -235 210 -400
103 -197 116 -220 121 -219 2 0 54 27 116 60 l112 59 -91 175 c-50 96 -94 180
-98 185 -4 6 -42 78 -85 160 -43 83 -96 184 -118 225 -21 41 -61 117 -88 167
-84 158 -144 273 -209 398 -34 66 -79 152 -100 190 -21 39 -61 115 -90 170
-29 55 -72 136 -95 180 -24 44 -65 123 -93 175 l-49 96 32 74 c18 41 38 86 43
100 6 14 46 111 90 215 147 348 182 433 182 438 0 3 -17 12 -37 20 -21 8 -75
31 -121 51 l-83 36 -20 -48z"/>
<path d="M680 3225 c0 -379 1 -405 18 -406 69 -4 515 0 545 5 97 15 101 31
101 386 -1 337 -2 355 -29 380 -39 36 -70 40 -356 40 l-279 0 0 -405z"/>
<path d="M6255 3616 c-43 -19 -54 -36 -63 -102 -9 -69 -8 -556 2 -606 9 -48
42 -75 101 -84 28 -4 174 -7 325 -7 297 1 334 6 362 55 10 18 13 97 13 353 0
373 0 375 -76 395 -58 16 -626 12 -664 -4z"/>
<path d="M1367 2306 c-32 -13 -63 -28 -70 -34 -6 -5 -32 -21 -57 -34 -73 -41
-314 -184 -357 -212 -63 -42 -80 -87 -55 -146 12 -29 81 -154 205 -370 11 -19
25 -44 31 -55 37 -68 85 -127 112 -140 51 -24 64 -18 379 165 226 132 254 150
272 183 25 44 13 73 -123 312 -145 255 -184 315 -226 339 -34 21 -42 20 -111
-8z"/>
<path d="M6063 2320 c-35 -14 -93 -101 -228 -345 -16 -27 -50 -88 -77 -134
-72 -127 -74 -171 -8 -220 45 -32 366 -220 469 -273 108 -56 128 -56 177 -4
26 27 164 248 164 262 0 2 11 21 23 42 82 129 140 250 139 286 -1 50 -47 86
-264 211 -9 6 -63 37 -120 70 -183 106 -229 123 -275 105z"/>
<path d="M2178 1263 c-23 -25 -128 -186 -128 -197 0 -2 -34 -62 -76 -132 -136
-228 -152 -277 -107 -326 17 -19 139 -97 233 -150 25 -14 108 -61 185 -104
115 -65 148 -79 183 -79 57 0 74 20 211 254 192 327 209 372 165 422 -20 23
-115 87 -194 131 -25 14 -94 54 -155 88 -230 132 -269 143 -317 93z"/>
<path d="M5220 1267 c-185 -94 -501 -283 -522 -311 -29 -39 -30 -76 -4 -132
45 -99 271 -478 308 -517 35 -37 40 -39 80 -33 24 4 95 37 168 78 69 40 139
79 155 88 155 83 262 155 281 191 24 47 7 88 -133 319 -55 91 -114 191 -132
223 -53 93 -77 117 -119 117 -21 0 -57 -10 -82 -23z"/>
<path d="M3452 800 c-45 -10 -68 -34 -80 -81 -14 -55 -9 -625 6 -660 23 -58
26 -58 382 -59 192 0 338 4 353 9 14 6 34 25 44 43 15 29 17 65 17 308 0 370
-5 402 -63 431 -29 15 -600 22 -659 9z"/>
</g>
</svg>
